<svg width="26" height="57" viewBox="0 0 26 57" fill="none" xmlns="http://www.w3.org/2000/svg">
<path d="M1.00122 14.4373C1.00122 8.59809 4.73629 3.33163 10.3202 1.61661C12.2158 1.03456 14.2078 0.788671 16.1003 1.21509C21.7495 2.48813 24.9181 8.11253 24.9991 23.6255C25.0831 39.207 19.4743 48.9026 14.1393 55.3737C12.5831 57.2817 6.90575 49.0116 5.62649 42.83C5.49057 42.1499 5.51458 41.4475 5.69662 40.7782C5.87865 40.109 6.21373 39.4912 6.67542 38.9736L6.72833 38.9144C7.14725 38.4349 7.71905 38.1149 8.34686 38.0087C10.3669 37.6787 12.776 38.5938 13.0406 37.6663C13.7005 35.3568 14.6311 32.8014 14.3915 32.7018C13.0593 32.1477 11.9917 31.4132 12.0664 30.8902C12.1411 30.3673 13.1807 30.579 14.4755 30.2677C15.3906 30.0716 14.8054 28.201 15.2132 26.6727C15.5649 25.3437 17.392 25.1507 17.3702 24.2418C17.3702 23.6691 12.4274 24.2418 9.95295 11.1691C9.85646 10.6524 2.22757 12.6102 1.00122 20.6095" stroke="#4E4E4E" stroke-width="1.18665" stroke-miterlimit="10"/>
</svg>
