<svg width="26" height="57" viewBox="0 0 26 57" fill="none" xmlns="http://www.w3.org/2000/svg">
<path d="M25.0012 26.9653V14.4373C25.0012 8.59809 21.2661 3.33163 15.6791 1.61661C13.7835 1.03456 11.7915 0.788671 9.90215 1.21509C4.24974 2.48813 1.03758 8.11253 1.00023 23.6255C0.959762 39.5245 6.37873 49.0303 11.86 55.3737C13.6652 57.4653 22.0194 42.4877 22.0598 34.3421C22.0598 31.7089 20.3635 31.2295 19.9153 29.6732C19.1589 27.0494 20.0211 24.3539 21.5431 24.2294C22.757 24.1298 24.5281 26.293 25.0012 26.9653ZM25.0012 26.9653C24.9986 26.9797 24.9919 26.9931 24.9818 27.0037C24.9718 27.0143 25.0012 25.9008 25.0012 25.9008" stroke="#4E4E4E" stroke-width="1.18665" stroke-miterlimit="10"/>
</svg>
